<svg xmlns="http://www.w3.org/2000/svg" width="1200" height="630" viewBox="0 0 1200 630" role="img" aria-labelledby="title desc">
  <title id="title">Haley Parks desk preview</title>
  <desc id="desc">A sunny paper desk with raspberry, olive, sky blue, lavender, and ochre project objects.</desc>
  <rect width="1200" height="630" fill="#FFF8EF"/>
  <rect x="54" y="48" width="1092" height="534" rx="18" fill="#F8F0E7" opacity=".7" stroke="#372826" stroke-opacity=".1"/>
  <text x="88" y="138" fill="#372826" font-family="Georgia, serif" font-size="76" font-weight="700">Haley Parks</text>
  <text x="92" y="200" fill="#91505B" font-family="Georgia, serif" font-size="42" font-weight="700">AI Product Engineer building systems that understand people.</text>
  <g transform="translate(92 286)">
    <rect width="230" height="180" rx="10" fill="#F8F0E7" stroke="#91505B" stroke-opacity=".28"/>
    <rect x="0" width="10" height="180" rx="5" fill="#91505B" opacity=".22"/>
    <rect x="28" y="-12" width="70" height="18" fill="#D2A63A" opacity=".55" transform="rotate(-5 28 -12)"/>
    <text x="28" y="54" fill="#91505B" font-family="Menlo, monospace" font-size="26">HUMAN MODEL</text>
    <path d="M31 130 L76 112 L112 118 L154 84 L198 94" fill="none" stroke="#91505B" stroke-opacity=".65" stroke-width="3"/>
  </g>
  <g transform="translate(358 250)">
    <rect width="270" height="220" rx="10" fill="#AFBA43"/>
    <rect x="24" y="30" width="108" height="26" rx="13" fill="#FFF8EF" opacity=".58"/>
    <text x="28" y="96" fill="#372826" font-family="Arial, sans-serif" font-size="30" font-weight="700">Career</text>
    <text x="28" y="134" fill="#372826" font-family="Arial, sans-serif" font-size="30" font-weight="700">Intelligence</text>
    <path d="M28 172 H230" stroke="#372826" stroke-opacity=".18"/>
  </g>
  <g transform="translate(662 278)">
    <rect width="235" height="180" rx="10" fill="#CFE7F6"/>
    <path d="M0 45 H235 M0 90 H235 M0 135 H235 M47 0 V180 M94 0 V180 M141 0 V180 M188 0 V180" stroke="#4F86A8" stroke-opacity=".18"/>
    <text x="28" y="72" fill="#372826" font-family="Arial, sans-serif" font-size="34" font-weight="700">QA Agents</text>
    <text x="28" y="122" fill="#355F7C" font-family="Menlo, monospace" font-size="18">observable systems</text>
  </g>
  <g transform="translate(930 120) rotate(2)">
    <rect width="170" height="146" rx="8" fill="#DCC9E4"/>
    <rect x="48" y="-10" width="68" height="18" fill="#D2A63A" opacity=".62"/>
    <text x="26" y="66" fill="#4B3158" font-family="Menlo, monospace" font-size="18">researcher,</text>
    <text x="26" y="94" fill="#4B3158" font-family="Menlo, monospace" font-size="18">builder,</text>
    <text x="26" y="122" fill="#4B3158" font-family="Menlo, monospace" font-size="18">learner.</text>
  </g>
  <g transform="translate(914 330) rotate(-2)">
    <rect width="180" height="122" rx="8" fill="#D2A63A"/>
    <text x="26" y="66" fill="#4D3710" font-family="Menlo, monospace" font-size="18">field notes open</text>
  </g>
</svg>
